<svg xmlns="http://www.w3.org/2000/svg" viewBox="0 0 48 48"><linearGradient id="pU1wSHZAKOiBuJQ6o8IXpa" x1="24" x2="24" y1="6.121" y2="42.039" gradientUnits="userSpaceOnUse"><stop offset="0" stop-color="#9dffce"/><stop offset="1" stop-color="#50d18d"/></linearGradient><path fill="url(#pU1wSHZAKOiBuJQ6o8IXpa)" d="M40,42H8c-1.1,0-2-0.9-2-2V8c0-1.1,0.9-2,2-2h32c1.1,0,2,0.9,2,2v32C42,41.1,41.1,42,40,42z"/><linearGradient id="pU1wSHZAKOiBuJQ6o8IXpb" x1="24" x2="24" y1="37.056" y2="14.787" gradientUnits="userSpaceOnUse"><stop offset="0" stop-color="#16874c"/><stop offset="1" stop-color="#096334"/></linearGradient><path fill="url(#pU1wSHZAKOiBuJQ6o8IXpb)" d="M36,15H12c-0.552,0-1,0.448-1,1v14c0,0.552,0.448,1,1,1h3v2c0,0.552,0.448,1,1,1h3v2	c0,0.552,0.448,1,1,1h8c0.552,0,1-0.448,1-1v-2h3c0.552,0,1-0.448,1-1v-2h3c0.552,0,1-0.448,1-1V16C37,15.448,36.552,15,36,15z"/><path fill="#e3a600" d="M24.5,19h-1c-0.276,0-0.5-0.224-0.5-0.5V15h2v3.5C25,18.776,24.776,19,24.5,19z"/><path fill="#e3a600" d="M28.5,19h-1c-0.276,0-0.5-0.224-0.5-0.5V15h2v3.5C29,18.776,28.776,19,28.5,19z"/><path fill="#e3a600" d="M32.5,19h-1c-0.276,0-0.5-0.224-0.5-0.5V15h2v3.5C33,18.776,32.776,19,32.5,19z"/><path fill="#e3a600" d="M20.5,19h-1c-0.276,0-0.5-0.224-0.5-0.5V15h2v3.5C21,18.776,20.776,19,20.5,19z"/><path fill="#e3a600" d="M16.5,19h-1c-0.276,0-0.5-0.224-0.5-0.5V15h2v3.5C17,18.776,16.776,19,16.5,19z"/></svg>