<svg xmlns="http://www.w3.org/2000/svg" viewBox="0 0 48 48"><path fill="#3498db" d="M39 39L5 39 5 5 34 5 39 10z"/><path fill="#fff" d="M36,36c0,0.553-0.447,1-1,1H9c-0.553,0-1-0.447-1-1V22c0-0.553,0.447-1,1-1h26c0.553,0,1,0.447,1,1 V36z"/><path fill="#cfd8dc" d="M12 28H32V30H12zM12 24H32V26H12zM12 32H32V34H12z"/><path fill="#2980b9" d="M8,5v9c0,1.104,0.896,2,2,2h13c1.104,0,2-0.896,2-2V5H8z"/><path fill="#b0bec5" d="M14,5v9c0,1.104,0.896,2,2,2h13c1.104,0,2-0.896,2-2V5H14z"/><path fill="#263238" d="M23 7H27V14H23z"/><path fill="#e57373" d="M39.858,42.678l2.819-2.82c0.43-0.429,0.43-1.126,0-1.555l-1.328-1.328l-4.375,4.376l1.328,1.327 C38.732,43.107,39.428,43.107,39.858,42.678"/><path fill="#ff9800" d="M29.221 25.73H35.409V38.903H29.221z" transform="rotate(-45.001 32.315 32.317)"/><path fill="#b0bec5" d="M34.971 36.522H41.16V39.616H34.971z" transform="rotate(-45.017 38.065 38.07)"/><path fill="#ffc107" d="M29.848 25.473L24 24 25.472 29.848z"/><path fill="#37474f" d="M26.956 24.744L24 24 24.744 26.956z"/></svg>