<svg xmlns="http://www.w3.org/2000/svg" viewBox="0 0 48 48"><linearGradient id="U3DGa1zUN6cK9W7mZzE7ka" x1="9.858" x2="38.142" y1="9.858" y2="38.142" gradientUnits="userSpaceOnUse"><stop offset="0" stop-color="#33bef0"/><stop offset="1" stop-color="#0a85d9"/></linearGradient><path fill="url(#U3DGa1zUN6cK9W7mZzE7ka)" d="M44,24c0,11.045-8.955,20-20,20S4,35.045,4,24S12.955,4,24,4S44,12.955,44,24z"/><path d="M27.675,33.412c0,1.923-1.438,3.267-3.499,3.267c-1.716,0-3.54-1.145-3.54-3.267	c0-2.104,1.824-3.24,3.54-3.24C25.915,30.172,27.675,31.285,27.675,33.412z" opacity=".05"/><path d="M24.312,12c-2.57,0-4.638,0.884-5.65,1.416c-0.421,0.221-0.676,0.66-0.676,1.135v5.112	c0,0.496,0.587,0.75,0.952,0.413c1.004-0.928,2.734-2.157,4.851-2.157c0.509,0,1.363,0.15,1.363,1.154	c0,0.989-0.595,1.557-1.645,2.475c-1.26,1.101-2.828,2.472-2.828,5.26c0,0.866,0.163,1.577,0.323,2.065	c0.145,0.441,0.566,0.73,1.031,0.73c0,0,3.435-0.006,3.927-0.006c1.158,0,1.053-0.85,0.899-1.271	c-0.099-0.272-0.291-0.692-0.291-1.084c0-0.957,0.673-1.574,1.863-2.583c1.536-1.302,3.448-2.923,3.448-6.245	C31.881,14.398,29.052,12,24.312,12z" opacity=".05"/><path d="M24.176,30.672c1.461,0,2.999,0.888,2.999,2.74c0,1.75-1.351,2.767-2.999,2.767	c-1.475,0-3.04-0.958-3.04-2.767C21.136,31.612,22.726,30.672,24.176,30.672z" opacity=".07"/><path d="M18.987,13.803c0.95-0.508,2.811-1.303,5.326-1.303c5.612,0,7.068,3.428,7.068,5.916	c0,3.046-1.725,4.551-3.204,5.806c-0.984,0.834-1.627,1.465-1.909,2.298c-0.311,0.919,0.145,1.612,0.156,1.646	c0.128,0.37,0.019,0.936-0.816,0.936c-0.696,0.001-3.117,0.002-3.117,0.002c-0.232,0-0.92-0.144-0.993-0.365	c-0.122-0.349-0.303-1.046-0.316-1.804c-0.002-0.084-0.001-0.169,0-0.253c0.054-2.699,1.728-3.904,2.998-5.067	c0.891-0.809,1.472-1.473,1.472-2.542c0-0.936-0.612-1.266-1.089-1.426c-0.601-0.202-1.252-0.167-1.622-0.099	c-1.341,0.249-2.486,0.843-3.289,1.435c-0.383,0.282-0.846,0.277-0.983,0.135c-0.076,0.059-0.184-0.339-0.184-0.436l0-3.868	c0-0.081,0.021-0.33,0.043-0.404C18.603,14.16,18.747,13.931,18.987,13.803z" opacity=".07"/><path fill="#fff" d="M21.994,28.605c-0.1-0.259-0.314-1.032-0.314-1.795c0-4.345,4.473-4.512,4.473-7.735 c0-2.029-2.005-2.154-2.364-2.154c-2.277,0-4.055,1.302-4.803,1.96v-4.503C19.754,13.918,21.512,13,24.313,13 c6.486,0,6.568,4.458,6.568,5.416c0,5.146-5.311,5.528-5.311,8.827c0,0.688,0.249,1.192,0.359,1.361H21.994z M24.176,35.679 c-1.235,0-2.54-0.77-2.54-2.267c0-1.496,1.356-2.24,2.54-2.24s2.499,0.664,2.499,2.24C26.675,34.988,25.411,35.679,24.176,35.679z"/></svg>