<svg xmlns="http://www.w3.org/2000/svg" viewBox="0 0 48 48"><linearGradient id="1xwB_iTLxstkssZ6q5Itha" x1="8.663" x2="38.122" y1="8.059" y2="32.915" gradientUnits="userSpaceOnUse"><stop offset="0" stop-color="#a1aab3"/><stop offset="1" stop-color="#8f979e"/></linearGradient><path fill="url(#1xwB_iTLxstkssZ6q5Itha)" d="M41,35H7c-1.105,0-2-0.895-2-2V9c0-1.105,0.895-2,2-2h34c1.105,0,2,0.895,2,2v24	C43,34.105,42.105,35,41,35z"/><radialGradient id="1xwB_iTLxstkssZ6q5Ithb" cx="56.516" cy="78.468" r="86.245" gradientTransform="matrix(.8095 0 0 .7188 1.333 2.531)" gradientUnits="userSpaceOnUse"><stop offset=".323" stop-color="#23d9d6"/><stop offset=".427" stop-color="#23d4d7"/><stop offset=".542" stop-color="#21c7dc"/><stop offset=".664" stop-color="#1fb0e2"/><stop offset=".789" stop-color="#1c91ec"/><stop offset=".917" stop-color="#1969f8"/><stop offset=".944" stop-color="#1860fb"/></radialGradient><rect width="34" height="24" x="7" y="9" fill="url(#1xwB_iTLxstkssZ6q5Ithb)"/><linearGradient id="1xwB_iTLxstkssZ6q5Ithc" x1="24" x2="24" y1="34.985" y2="42.014" gradientUnits="userSpaceOnUse"><stop offset="0" stop-color="#484b4f"/><stop offset=".23" stop-color="#656d75"/><stop offset=".367" stop-color="#727d86"/></linearGradient><path fill="url(#1xwB_iTLxstkssZ6q5Ithc)" d="M33,38h-5v-3h-8v3h-5c-0.552,0-1,0.448-1,1v2c0,0.552,0.448,1,1,1h18c0.552,0,1-0.448,1-1v-2	C34,38.448,33.552,38,33,38z"/></svg>