<svg version="1.1" viewBox="0 0 48 48" xmlns="http://www.w3.org/2000/svg">
 <defs>
  <linearGradient id="bg" x2="0" y1="1" y2="47" gradientUnits="userSpaceOnUse">
   <stop style="stop-color:#edbdbd" offset="0"/>
   <stop style="stop-color:#e9adad" offset="1"/>
  </linearGradient>
 </defs>
 <path d="m1 43v0.25c0 2.22 1.78 4 4 4h38c2.22 0 4-1.78 4-4v-0.25c0 2.22-1.78 4-4 4h-38c-2.22 0-4-1.78-4-4zm0 0.5v0.5c0 2.22 1.78 4 4 4h38c2.22 0 4-1.78 4-4v-0.5c0 2.22-1.78 4-4 4h-38c-2.22 0-4-1.78-4-4z" style="opacity:.02"/>
 <path d="m1 43.2v0.25c0 2.22 1.78 4 4 4h38c2.22 0 4-1.78 4-4v-0.25c0 2.22-1.78 4-4 4h-38c-2.22 0-4-1.78-4-4z" style="opacity:.05"/>
 <path d="m1 43v0.25c0 2.22 1.78 4 4 4h38c2.22 0 4-1.78 4-4v-0.25c0 2.22-1.78 4-4 4h-38c-2.22 0-4-1.78-4-4z" style="opacity:.1"/>
 <rect x="1" y="1" width="46" height="46" rx="4" style="fill:url(#bg)"/>
 <path d="m1 39v4c0 2.22 1.78 4 4 4h38c2.22 0 4-1.78 4-4v-4c0 2.22-1.78 4-4 4h-38c-2.22 0-4-1.78-4-4z" style="opacity:.1"/>
 <path d="m22 11c-5 0-6.41 1-7 2 0.237 0 2.5 1 2.5 1-3.34 0-5.25 3.29-6.19 8.24-0.202 1.07-0.314 2.17-0.314 3.26 1-1.5 2.5-2.5 2.5-2.5-0.99 1.34-2.5 4.38-2.5 8h21c-2.6-1.67-3-3.09-3-5 0-1 0.75-3.25 2-4h8l-2-3-5.88-2.62s-3.12-5.38-9.12-5.38zm-10 23v3h21l3-1v-1l-3-1z" style="opacity:.1"/>
 <path d="m22 10c-5 0-6.41 1-7 2 0.237 0 2.5 1 2.5 1-3.34 0-5.25 3.29-6.19 8.24-0.202 1.07-0.314 2.17-0.314 3.26 1-1.5 2.5-2.5 2.5-2.5-0.99 1.34-2.5 4.38-2.5 8h21c-2.6-1.67-3-3.09-3-5 0-1 0.75-3.25 2-4h8l-2-3-5.88-2.62s-3.12-5.38-9.12-5.38z" style="fill:#474747"/>
 <path d="m33 33c-0.63 1-0.333 2 0 3l2-0.666c0.368-0.556 0.235-1.11 0-1.67z" style="fill:#efcfb5"/>
 <rect x="12" y="33" width="21" height="3" style="fill:#b23030"/>
 <path d="m35 33.7v1.67l1-0.334v-1z" style="fill:#474747"/>
 <path d="m26.5 15a1.5 1.5 0 0 0-1.5 1.5 1.5 1.5 0 0 0 1.5 1.5 1.5 1.5 0 0 0 1.5-1.5 1.5 1.5 0 0 0-1.5-1.5zm0 1a0.5 0.5 0 0 1 0.5 0.5 0.5 0.5 0 0 1-0.5 0.5 0.5 0.5 0 0 1-0.5-0.5 0.5 0.5 0 0 1 0.5-0.5z" style="fill:#f0f0f0"/>
</svg>
