<svg version="1.1" viewBox="0 0 48 48" xmlns="http://www.w3.org/2000/svg">
 <defs>
  <linearGradient id="bg" x2="0" y1="1" y2="47" gradientUnits="userSpaceOnUse">
   <stop style="stop-color:#edbdbd" offset="0"/>
   <stop style="stop-color:#e9adad" offset="1"/>
  </linearGradient>
 </defs>
 <circle cx="24" cy="24" r="23" style="fill:url(#bg)"/>
 <path d="m23 11c-5 0-6.4068 1-7 2 0.23728 0 2.5 1 2.5 1-3.3391 0-5.2533 3.2892-6.1855 8.2363-0.20162 1.0699-0.31445 2.1687-0.31445 3.2637 1-1.5 2.5-2.5 2.5-2.5-0.98985 1.3421-2.5 4.3811-2.5 8h21c-2.6024-1.6678-3-3.0872-3-5 0-1 0.75-3.25 2-4h8l-2-3-5.875-2.625s-3.125-5.375-9.125-5.375zm-10 23v3h21l2-0.66602 1-0.33398v-1l-1-0.33398-2-0.66602z" style="opacity:.1;paint-order:normal"/>
 <path d="m22 10c-5 0-6.4068 1-7 2 0.23728 0 2.5 1 2.5 1-3.3391 0-5.2533 3.2892-6.1855 8.2363-0.20162 1.0699-0.31445 2.1687-0.31445 3.2637 1-1.5 2.5-2.5 2.5-2.5-0.98985 1.3421-2.5 4.3811-2.5 8h21c-2.6024-1.6678-3-3.0872-3-5 0-1 0.75-3.25 2-4h8l-2-3-5.875-2.625s-3.125-5.375-9.125-5.375z" style="fill:#303030;paint-order:normal"/>
 <path d="m33 33c-0.6301 1-0.33272 2 0 3l2-0.66602c0.36848-0.55599 0.23532-1.112 0-1.668z" style="fill:#efcfb5;paint-order:normal"/>
 <rect x="12" y="33" width="21" height="3" style="fill:#b23030;paint-order:normal"/>
 <path d="m35 33.666v1.668l1-0.33398v-1z" style="fill:#2a2a2a;paint-order:normal"/>
 <path d="m26.5 15a1.5 1.5 0 0 0-1.5 1.5 1.5 1.5 0 0 0 1.5 1.5 1.5 1.5 0 0 0 1.5-1.5 1.5 1.5 0 0 0-1.5-1.5zm0 1a0.5 0.5 0 0 1 0.5 0.5 0.5 0.5 0 0 1-0.5 0.5 0.5 0.5 0 0 1-0.5-0.5 0.5 0.5 0 0 1 0.5-0.5z" style="fill:#f0f0f0;paint-order:normal"/>
</svg>
