<svg version="1.1" viewBox="0 0 48 48" xmlns="http://www.w3.org/2000/svg">
 <defs>
  <linearGradient id="bg" x2="0" y1="1" y2="47" gradientUnits="userSpaceOnUse">
   <stop style="stop-color:#edbdbd" offset="0"/>
   <stop style="stop-color:#e9adad" offset="1"/>
  </linearGradient>
 </defs>
 <path d="m36.31 5c5.859 4.062 9.688 10.831 9.688 18.5 0 12.426-10.07 22.5-22.5 22.5-7.669 0-14.438-3.828-18.5-9.688 1.037 1.822 2.306 3.499 3.781 4.969 4.085 3.712 9.514 5.969 15.469 5.969 12.703 0 23-10.298 23-23 0-5.954-2.256-11.384-5.969-15.469-1.469-1.475-3.147-2.744-4.969-3.781zm4.969 3.781c3.854 4.113 6.219 9.637 6.219 15.719 0 12.703-10.297 23-23 23-6.081 0-11.606-2.364-15.719-6.219 4.16 4.144 9.883 6.719 16.219 6.719 12.703 0 23-10.298 23-23 0-6.335-2.575-12.06-6.719-16.219z" style="opacity:.05"/>
 <path d="m41.28 8.781c3.712 4.085 5.969 9.514 5.969 15.469 0 12.703-10.297 23-23 23-5.954 0-11.384-2.256-15.469-5.969 4.113 3.854 9.637 6.219 15.719 6.219 12.703 0 23-10.298 23-23 0-6.081-2.364-11.606-6.219-15.719z" style="opacity:.1"/>
 <path d="m31.25 2.375c8.615 3.154 14.75 11.417 14.75 21.13 0 12.426-10.07 22.5-22.5 22.5-9.708 0-17.971-6.135-21.12-14.75a23 23 0 0 0 44.875-7 23 23 0 0 0-16-21.875z" style="opacity:.2"/>
 <circle cx="24" cy="24" r="23" style="fill:url(#bg)"/>
 <path d="m40.03 7.531c3.712 4.084 5.969 9.514 5.969 15.469 0 12.703-10.297 23-23 23-5.954 0-11.384-2.256-15.469-5.969 4.178 4.291 10.01 6.969 16.469 6.969 12.703 0 23-10.298 23-23 0-6.462-2.677-12.291-6.969-16.469z" style="opacity:.1"/>
 <path d="m23 11c-5 0-6.4068 1-7 2 0.23728 0 2.5 1 2.5 1-3.3391 0-5.2533 3.2892-6.1855 8.2363-0.20162 1.0699-0.31445 2.1687-0.31445 3.2637 1-1.5 2.5-2.5 2.5-2.5-0.98985 1.3421-2.5 4.3811-2.5 8h21c-2.6024-1.6678-3-3.0872-3-5 0-1 0.75-3.25 2-4h8l-2-3-5.875-2.625s-3.125-5.375-9.125-5.375zm-10 23v3h21l2-0.66602 1-0.33398v-1l-1-0.33398-2-0.66602z" style="opacity:.1;paint-order:normal"/>
 <path d="m22 10c-5 0-6.4068 1-7 2 0.23728 0 2.5 1 2.5 1-3.3391 0-5.2533 3.2892-6.1855 8.2363-0.20162 1.0699-0.31445 2.1687-0.31445 3.2637 1-1.5 2.5-2.5 2.5-2.5-0.98985 1.3421-2.5 4.3811-2.5 8h21c-2.6024-1.6678-3-3.0872-3-5 0-1 0.75-3.25 2-4h8l-2-3-5.875-2.625s-3.125-5.375-9.125-5.375z" style="fill:#303030;paint-order:normal"/>
 <path d="m33 33c-0.6301 1-0.33272 2 0 3l2-0.66602c0.36848-0.55599 0.23532-1.112 0-1.668z" style="fill:#efcfb5;paint-order:normal"/>
 <rect x="12" y="33" width="21" height="3" style="fill:#b23030;paint-order:normal"/>
 <path d="m35 33.666v1.668l1-0.33398v-1z" style="fill:#2a2a2a;paint-order:normal"/>
 <path d="m26.5 15a1.5 1.5 0 0 0-1.5 1.5 1.5 1.5 0 0 0 1.5 1.5 1.5 1.5 0 0 0 1.5-1.5 1.5 1.5 0 0 0-1.5-1.5zm0 1a0.5 0.5 0 0 1 0.5 0.5 0.5 0.5 0 0 1-0.5 0.5 0.5 0.5 0 0 1-0.5-0.5 0.5 0.5 0 0 1 0.5-0.5z" style="fill:#f0f0f0;paint-order:normal"/>
</svg>
